<?xml version="1.0" encoding="UTF-8" standalone="no"?>
<!DOCTYPE svg PUBLIC "-//W3C//DTD SVG 1.1//EN"
 "http://www.w3.org/Graphics/SVG/1.1/DTD/svg11.dtd">
<!-- Generated by graphviz version 2.40.1 (20161225.0304)
 -->
<!-- Title: %3 Pages: 1 -->
<svg width="432pt" height="90pt"
 viewBox="0.00 0.00 432.00 89.89" xmlns="http://www.w3.org/2000/svg" xmlns:xlink="http://www.w3.org/1999/xlink">
<g id="graph0" class="graph" transform="scale(.5288 .5288) rotate(0) translate(4 166)">
<title>%3</title>
<polygon fill="#ffffff" stroke="transparent" points="-4,4 -4,-166 813,-166 813,4 -4,4"/>
<!-- 0 -->
<g id="node1" class="node">
<title>0</title>
<ellipse fill="none" stroke="#000000" cx="27" cy="-18" rx="27" ry="18"/>
<text text-anchor="middle" x="27" y="-14.3" font-family="Times,serif" font-size="14.00" fill="#000000">0</text>
</g>
<!-- 1 -->
<g id="node2" class="node">
<title>1</title>
<ellipse fill="none" stroke="#000000" cx="118" cy="-65" rx="27" ry="18"/>
<text text-anchor="middle" x="118" y="-61.3" font-family="Times,serif" font-size="14.00" fill="#000000">1</text>
</g>
<!-- 0&#45;&gt;1 -->
<g id="edge1" class="edge">
<title>0&#45;&gt;1</title>
<path fill="none" stroke="#000000" d="M48.5657,-29.1383C60.2386,-35.1672 74.8496,-42.7135 87.6533,-49.3264"/>
<polygon fill="#000000" stroke="#000000" points="86.098,-52.4624 96.5891,-53.9416 89.3103,-46.2429 86.098,-52.4624"/>
</g>
<!-- 7 -->
<g id="node3" class="node">
<title>7</title>
<ellipse fill="none" stroke="#000000" cx="489" cy="-18" rx="27" ry="18"/>
<text text-anchor="middle" x="489" y="-14.3" font-family="Times,serif" font-size="14.00" fill="#000000">7</text>
</g>
<!-- 0&#45;&gt;7 -->
<g id="edge2" class="edge">
<title>0&#45;&gt;7</title>
<path fill="none" stroke="#000000" d="M53.1621,-12.7017C71.2837,-9.4871 96.0092,-6 118,-6 118,-6 118,-6 398,-6 416.2112,-6 436.2977,-8.3914 452.9561,-11.0391"/>
<polygon fill="#000000" stroke="#000000" points="452.3958,-14.4939 462.8379,-12.7017 453.5573,-7.591 452.3958,-14.4939"/>
</g>
<!-- 2 -->
<g id="node4" class="node">
<title>2</title>
<ellipse fill="none" stroke="#000000" cx="209" cy="-144" rx="27" ry="18"/>
<text text-anchor="middle" x="209" y="-140.3" font-family="Times,serif" font-size="14.00" fill="#000000">2</text>
</g>
<!-- 1&#45;&gt;2 -->
<g id="edge3" class="edge">
<title>1&#45;&gt;2</title>
<path fill="none" stroke="#000000" d="M134.6908,-79.4898C148.6729,-91.6281 168.8209,-109.1192 184.6109,-122.827"/>
<polygon fill="#000000" stroke="#000000" points="182.5691,-125.6894 192.415,-129.602 187.1581,-120.4034 182.5691,-125.6894"/>
</g>
<!-- 4 -->
<g id="node5" class="node">
<title>4</title>
<ellipse fill="none" stroke="#000000" cx="209" cy="-90" rx="27" ry="18"/>
<text text-anchor="middle" x="209" y="-86.3" font-family="Times,serif" font-size="14.00" fill="#000000">4</text>
</g>
<!-- 1&#45;&gt;4 -->
<g id="edge4" class="edge">
<title>1&#45;&gt;4</title>
<path fill="none" stroke="#000000" d="M143.3486,-71.9639C152.8148,-74.5645 163.7394,-77.5658 173.9269,-80.3645"/>
<polygon fill="#000000" stroke="#000000" points="173.2174,-83.7992 183.7874,-83.0735 175.0718,-77.0493 173.2174,-83.7992"/>
</g>
<!-- 8 -->
<g id="node9" class="node">
<title>8</title>
<ellipse fill="none" stroke="#000000" cx="586" cy="-18" rx="27" ry="18"/>
<text text-anchor="middle" x="586" y="-14.3" font-family="Times,serif" font-size="14.00" fill="#000000">8</text>
</g>
<!-- 7&#45;&gt;8 -->
<g id="edge11" class="edge">
<title>7&#45;&gt;8</title>
<path fill="none" stroke="#000000" d="M516.0199,-18C526.1304,-18 537.8016,-18 548.6794,-18"/>
<polygon fill="#000000" stroke="#000000" points="548.7886,-21.5001 558.7886,-18 548.7885,-14.5001 548.7886,-21.5001"/>
<text text-anchor="middle" x="537.5" y="-21.8" font-family="Times,serif" font-size="14.00" fill="#000000">a</text>
</g>
<!-- 3 -->
<g id="node6" class="node">
<title>3</title>
<ellipse fill="none" stroke="#000000" cx="307" cy="-144" rx="27" ry="18"/>
<text text-anchor="middle" x="307" y="-140.3" font-family="Times,serif" font-size="14.00" fill="#000000">3</text>
</g>
<!-- 2&#45;&gt;3 -->
<g id="edge5" class="edge">
<title>2&#45;&gt;3</title>
<path fill="none" stroke="#000000" d="M236.0384,-144C246.3425,-144 258.2803,-144 269.391,-144"/>
<polygon fill="#000000" stroke="#000000" points="269.7097,-147.5001 279.7097,-144 269.7096,-140.5001 269.7097,-147.5001"/>
<text text-anchor="middle" x="258" y="-147.8" font-family="Times,serif" font-size="14.00" fill="#000000">a</text>
</g>
<!-- 5 -->
<g id="node8" class="node">
<title>5</title>
<ellipse fill="none" stroke="#000000" cx="307" cy="-90" rx="27" ry="18"/>
<text text-anchor="middle" x="307" y="-86.3" font-family="Times,serif" font-size="14.00" fill="#000000">5</text>
</g>
<!-- 4&#45;&gt;5 -->
<g id="edge8" class="edge">
<title>4&#45;&gt;5</title>
<path fill="none" stroke="#000000" d="M236.0384,-90C246.3425,-90 258.2803,-90 269.391,-90"/>
<polygon fill="#000000" stroke="#000000" points="269.7097,-93.5001 279.7097,-90 269.7096,-86.5001 269.7097,-93.5001"/>
<text text-anchor="middle" x="258" y="-93.8" font-family="Times,serif" font-size="14.00" fill="#000000">b</text>
</g>
<!-- 6 -->
<g id="node7" class="node">
<title>6</title>
<ellipse fill="none" stroke="#000000" cx="398" cy="-60" rx="27" ry="18"/>
<text text-anchor="middle" x="398" y="-56.3" font-family="Times,serif" font-size="14.00" fill="#000000">6</text>
</g>
<!-- 3&#45;&gt;6 -->
<g id="edge6" class="edge">
<title>3&#45;&gt;6</title>
<path fill="none" stroke="#000000" d="M322.851,-129.3683C337.1171,-116.1996 358.271,-96.6729 374.5037,-81.6889"/>
<polygon fill="#000000" stroke="#000000" points="377.0513,-84.1005 382.0253,-74.7459 372.3033,-78.9569 377.0513,-84.1005"/>
</g>
<!-- 6&#45;&gt;1 -->
<g id="edge10" class="edge">
<title>6&#45;&gt;1</title>
<path fill="none" stroke="#000000" d="M370.7192,-60.2272C329.7411,-60.6029 249.8643,-61.4685 182,-63 173.2931,-63.1965 163.9215,-63.46 155.1074,-63.7312"/>
<polygon fill="#000000" stroke="#000000" points="154.9736,-60.2336 145.0898,-64.0494 155.1959,-67.23 154.9736,-60.2336"/>
</g>
<!-- 6&#45;&gt;7 -->
<g id="edge7" class="edge">
<title>6&#45;&gt;7</title>
<path fill="none" stroke="#000000" d="M420.4944,-49.618C431.6245,-44.481 445.2469,-38.1937 457.4042,-32.5827"/>
<polygon fill="#000000" stroke="#000000" points="459.1515,-35.6311 466.7644,-28.2626 456.218,-29.2754 459.1515,-35.6311"/>
</g>
<!-- 5&#45;&gt;6 -->
<g id="edge9" class="edge">
<title>5&#45;&gt;6</title>
<path fill="none" stroke="#000000" d="M331.3863,-81.9606C341.3827,-78.665 353.1261,-74.7936 363.946,-71.2266"/>
<polygon fill="#000000" stroke="#000000" points="365.145,-74.5167 373.5464,-68.0616 362.9533,-67.8686 365.145,-74.5167"/>
</g>
<!-- 9 -->
<g id="node10" class="node">
<title>9</title>
<ellipse fill="none" stroke="#000000" cx="684" cy="-18" rx="27" ry="18"/>
<text text-anchor="middle" x="684" y="-14.3" font-family="Times,serif" font-size="14.00" fill="#000000">9</text>
</g>
<!-- 8&#45;&gt;9 -->
<g id="edge12" class="edge">
<title>8&#45;&gt;9</title>
<path fill="none" stroke="#000000" d="M613.0384,-18C623.3425,-18 635.2803,-18 646.391,-18"/>
<polygon fill="#000000" stroke="#000000" points="646.7097,-21.5001 656.7097,-18 646.7096,-14.5001 646.7097,-21.5001"/>
<text text-anchor="middle" x="635" y="-21.8" font-family="Times,serif" font-size="14.00" fill="#000000">b</text>
</g>
<!-- 10 -->
<g id="node11" class="node">
<title>10</title>
<ellipse fill="none" stroke="#000000" cx="782" cy="-18" rx="27" ry="18"/>
<text text-anchor="middle" x="782" y="-14.3" font-family="Times,serif" font-size="14.00" fill="#000000">10</text>
</g>
<!-- 9&#45;&gt;10 -->
<g id="edge13" class="edge">
<title>9&#45;&gt;10</title>
<path fill="none" stroke="#000000" d="M711.0384,-18C721.3425,-18 733.2803,-18 744.391,-18"/>
<polygon fill="#000000" stroke="#000000" points="744.7097,-21.5001 754.7097,-18 744.7096,-14.5001 744.7097,-21.5001"/>
<text text-anchor="middle" x="733" y="-21.8" font-family="Times,serif" font-size="14.00" fill="#000000">b</text>
</g>
</g>
</svg>
